<svg id="Layer_1" data-name="Layer 1" xmlns="http://www.w3.org/2000/svg" viewBox="0 0 256 256"><defs><style>.cls-1{fill:#212529;}.cls-2{fill:#1bda1b;}</style></defs><title>Artboard 1</title><path class="cls-1" d="M128.07,256a94.55,94.55,0,0,1-66.53-26.74h0a90.6,90.6,0,0,1,0-130.45l8.81-8.48,58,56.1,58.05-56.1,8.81,8.48a90.6,90.6,0,0,1,0,130.45A98.69,98.69,0,0,1,128.07,256ZM78.83,211c27.06,26.09,71.09,26.09,98.16,0,13-12.72,20.22-29.35,20.22-47a65.21,65.21,0,0,0-12.07-37.83l-57.07,55.44L71,126.21A65.21,65.21,0,0,0,58.93,164c0,17.61,7.18,34.24,19.9,47Z"/><path class="cls-2" d="M131.66,72.07A26.42,26.42,0,1,1,105.24,46a26.24,26.24,0,0,1,26.42,26.09"/><path class="cls-2" d="M125.46,11.74a11.77,11.77,0,0,1-12.07,11.74,12,12,0,0,1-12.06-11.74A11.77,11.77,0,0,1,113.39,0c6.53,0,12.07,5.54,12.07,11.74"/><path class="cls-2" d="M172.09,46a16.07,16.07,0,0,1-16.3,16,16.29,16.29,0,0,1-16.31-16,16.31,16.31,0,0,1,32.61,0"/></svg>